<?xml version="1.0" standalone="no"?>
<!DOCTYPE svg PUBLIC "-//W3C//DTD SVG 20010904//EN"
 "http://www.w3.org/TR/2001/REC-SVG-20010904/DTD/svg10.dtd">
<svg version="1.0" xmlns="http://www.w3.org/2000/svg"
 width="2079.000000pt" height="989.000000pt" viewBox="0 0 2079.000000 989.000000"
 preserveAspectRatio="xMidYMid meet">
<metadata>
Created by potrace 1.16, written by Peter Selinger 2001-2019
</metadata>
<g transform="translate(0.000000,989.000000) scale(0.100000,-0.100000)"
fill="#000000" stroke="none">
<path d="M9830 8653 c-356 -20 -702 -150 -985 -369 -78 -61 -229 -210 -292
-288 l-32 -39 -103 45 c-138 60 -177 74 -285 98 -689 151 -1375 -186 -1673
-822 -47 -100 -103 -284 -121 -393 -11 -69 -14 -290 -6 -439 l2 -40 -55 -13
c-431 -107 -778 -381 -977 -773 -122 -241 -175 -510 -153 -777 12 -151 22
-202 66 -343 121 -387 412 -716 786 -889 162 -76 302 -113 491 -132 67 -6 937
-9 2502 -6 2636 3 2428 -2 2650 62 118 34 327 137 439 216 105 76 247 214 320
313 134 184 219 372 267 596 30 138 33 414 6 560 -77 410 -333 783 -688 997
-88 53 -250 126 -337 152 -39 12 -72 24 -72 27 0 3 11 49 24 102 36 147 50
262 50 422 0 161 -14 278 -50 421 -151 609 -643 1104 -1249 1258 -156 39 -379
62 -525 54z m280 -257 c178 -24 325 -68 470 -141 342 -172 610 -471 743 -830
97 -263 114 -608 43 -880 -8 -33 -29 -100 -47 -150 -27 -79 -29 -94 -20 -127
16 -51 59 -84 128 -97 286 -53 510 -177 706 -390 160 -174 262 -378 302 -601
18 -99 21 -326 6 -422 -72 -448 -394 -829 -826 -976 -195 -67 -23 -63 -2735
-60 l-2455 3 -90 24 c-359 95 -643 319 -808 638 -269 522 -134 1159 326 1530
164 132 360 218 592 257 155 27 190 80 149 226 -21 77 -30 329 -15 427 43 275
160 509 353 702 158 158 348 266 566 323 95 25 144 31 260 35 262 10 439 -36
702 -182 53 -30 73 -35 107 -32 54 6 61 12 147 127 179 241 416 418 701 523
210 78 461 104 695 73z"/>
<path d="M7130 5520 c-11 -11 -20 -33 -20 -48 0 -26 -5 -29 -98 -60 -115 -37
-144 -56 -140 -85 5 -36 49 -44 126 -23 37 10 77 21 90 23 l22 5 0 -283 c0
-276 1 -283 22 -306 20 -21 20 -24 5 -41 -15 -16 -15 -21 -3 -38 11 -14 27
-19 64 -19 47 0 60 7 280 154 127 84 252 173 276 198 123 120 140 301 36 383
-74 59 -172 84 -367 95 -89 6 -123 11 -123 20 0 17 -72 45 -115 45 -22 0 -43
-8 -55 -20z m415 -155 c190 -50 212 -194 53 -347 -62 -59 -261 -198 -284 -198
-12 0 -14 50 -14 273 0 151 3 277 7 280 12 13 179 7 238 -8z"/>
<path d="M6238 5260 c-49 -26 -97 -87 -146 -186 -38 -75 -44 -83 -79 -91 -47
-11 -55 -37 -19 -67 24 -20 25 -24 15 -66 -38 -166 112 -247 309 -167 31 13
118 62 192 109 74 47 174 107 222 133 67 37 90 55 97 78 24 66 -20 105 -101
92 -33 -6 -56 -20 -103 -65 -36 -34 -128 -98 -229 -159 -160 -96 -210 -120
-222 -108 -10 10 17 145 30 156 7 6 37 24 67 39 219 116 269 151 269 192 0 23
-57 73 -120 105 -60 31 -129 32 -182 5z"/>
</g>
</svg>
